<?xml version="1.0" encoding="UTF-8"?> <svg xmlns="http://www.w3.org/2000/svg" id="Layer_1" data-name="Layer 1" viewBox="0 0 186 200"><defs><style>.cls-1{fill:#fff;}</style></defs><path class="cls-1" d="M18.22,146.23a6.32,6.32,0,0,1,.5,2.48v1.69l-3.86.6v-2.29a2.52,2.52,0,0,0-.76-1.83,2.77,2.77,0,0,0-.82-.56,2.6,2.6,0,0,0-1-.2H10.89a2.6,2.6,0,0,0-1,.2,2.87,2.87,0,0,0-.84.56,2.48,2.48,0,0,0-.56.83,2.51,2.51,0,0,0-.2,1v11.85a2.56,2.56,0,0,0,.2,1,2.87,2.87,0,0,0,.56.84,2.53,2.53,0,0,0,.84.56,2.56,2.56,0,0,0,1,.2h1.38a2.6,2.6,0,0,0,1-.2,2.44,2.44,0,0,0,.82-.56,2.53,2.53,0,0,0,.56-.84,2.4,2.4,0,0,0,.2-1V156.9H11.34v-3.76h7.38v13.47H16.65l-.78-1.2a6.44,6.44,0,0,1-1.18.83,5.68,5.68,0,0,1-2.74.68H10.79a6.32,6.32,0,0,1-2.48-.5,6.58,6.58,0,0,1-2-1.36,6.42,6.42,0,0,1-1.36-2,6.24,6.24,0,0,1-.49-2.48V148.71a6.27,6.27,0,0,1,.49-2.48,6.35,6.35,0,0,1,1.37-2,6.35,6.35,0,0,1,4.5-1.86h1.57a6.24,6.24,0,0,1,2.48.5,6.38,6.38,0,0,1,3.38,3.37Z"></path><path class="cls-1" d="M33.18,157a5.59,5.59,0,0,0,.9-.3,6.49,6.49,0,0,0,2-1.36,6.25,6.25,0,0,0,1.36-2,6.11,6.11,0,0,0,.5-2.48V149a6.37,6.37,0,0,0-3.87-5.86,6.28,6.28,0,0,0-2.48-.5H23.66v23.94h3.86v-9.42h1.27l6,9.42h4.51Zm-1.67-3.56h-4v-7h4a2.6,2.6,0,0,1,1,.2,2.55,2.55,0,0,1,.82.56,2.87,2.87,0,0,1,.56.84,2.55,2.55,0,0,1,.2,1v1.79a2.6,2.6,0,0,1-.2,1,3,3,0,0,1-.56.84,2.77,2.77,0,0,1-.82.56A2.6,2.6,0,0,1,31.51,153.43Z"></path><polygon class="cls-1" points="43.62 166.61 57.91 166.61 57.91 162.85 47.48 162.85 47.48 156.53 55.93 156.53 55.93 152.77 47.48 152.77 47.48 146.43 57.91 146.43 57.91 142.67 43.62 142.67 43.62 166.61"></polygon><polygon class="cls-1" points="62.98 166.61 77.27 166.61 77.27 162.85 66.84 162.85 66.84 156.53 75.29 156.53 75.29 152.77 66.84 152.77 66.84 146.43 77.27 146.43 77.27 142.67 62.98 142.67 62.98 166.61"></polygon><polygon class="cls-1" points="92.78 156.53 84.85 142.67 82.35 142.67 82.35 166.61 86.2 166.61 86.2 152.79 94.11 166.61 96.64 166.61 96.64 142.67 92.78 142.67 92.78 156.53"></polygon><path class="cls-1" d="M122.06,152.58h0a6.33,6.33,0,0,0,.7-1.57,6.4,6.4,0,0,0,.25-1.76V149a6.32,6.32,0,0,0-.5-2.48,6.42,6.42,0,0,0-1.36-2,6.25,6.25,0,0,0-2-1.36,6.32,6.32,0,0,0-2.48-.5h-7.93v23.94h7.93a6.35,6.35,0,0,0,4.5-1.86,6.41,6.41,0,0,0,1.87-4.49v-1.42a6.45,6.45,0,0,0-.25-1.76,6.17,6.17,0,0,0-.7-1.57,6.29,6.29,0,0,0-1-1.31l-.18-.16.18-.17A6.52,6.52,0,0,0,122.06,152.58Zm-2.91,7.68a2.51,2.51,0,0,1-.2,1,2.48,2.48,0,0,1-.56.83,2.87,2.87,0,0,1-.84.56,2.53,2.53,0,0,1-1,.2h-4v-6.92h4a2.37,2.37,0,0,1,1,.2,2.53,2.53,0,0,1,.84.56,2.44,2.44,0,0,1,.56.82,2.6,2.6,0,0,1,.2,1Zm0-10.7a2.51,2.51,0,0,1-.2,1,2.71,2.71,0,0,1-.57.84,2.52,2.52,0,0,1-1.84.77h-4v-5.74h4a2.53,2.53,0,0,1,1,.2,2.39,2.39,0,0,1,.83.56,2.71,2.71,0,0,1,.57.84,2.55,2.55,0,0,1,.2,1Z"></path><path class="cls-1" d="M135.18,142.67h-2.45l-7,23.94h4l1.45-5.14h5.57l1.46,5.14h4Zm-2.93,15,1.72-6.06,1.74,6.06Z"></path><polygon class="cls-1" points="156.61 156.53 148.68 142.67 146.18 142.67 146.18 166.61 150.03 166.61 150.03 152.79 157.94 166.61 160.47 166.61 160.47 142.67 156.61 142.67 156.61 156.53"></polygon><polygon class="cls-1" points="181.68 142.67 176.86 142.67 169.47 152.48 169.47 142.67 165.62 142.67 165.62 166.61 169.47 166.61 169.47 156.8 176.86 166.61 181.68 166.61 172.48 154.64 181.68 142.67"></polygon><path class="cls-1" d="M16.15,177.58a5.38,5.38,0,0,0-1.15-1.7,5.27,5.27,0,0,0-1.7-1.15,5.32,5.32,0,0,0-2.08-.41H9.68a5.3,5.3,0,0,0-3.8,1.56,5.35,5.35,0,0,0-1.14,1.7,5.19,5.19,0,0,0-.42,2.08v11.69a5.19,5.19,0,0,0,.42,2.08,5.26,5.26,0,0,0,2.85,2.84,5.24,5.24,0,0,0,2.09.42h1.54a5.15,5.15,0,0,0,2.08-.42,5.24,5.24,0,0,0,1.7-1.14,5.38,5.38,0,0,0,1.15-1.7,5.19,5.19,0,0,0,.42-2.08V179.66A5.19,5.19,0,0,0,16.15,177.58Zm-1.54,13.77a3.44,3.44,0,0,1-.27,1.36,3.68,3.68,0,0,1-.75,1.11,3.52,3.52,0,0,1-1.1.75,3.4,3.4,0,0,1-1.36.27H9.77a3.4,3.4,0,0,1-1.36-.27,3.68,3.68,0,0,1-1.11-.75,3.51,3.51,0,0,1-.75-1.11,3.44,3.44,0,0,1-.27-1.36V179.66a3.4,3.4,0,0,1,.27-1.36,3.47,3.47,0,0,1,.75-1.1,3.66,3.66,0,0,1,1.11-.74,3.41,3.41,0,0,1,1.36-.28h1.36a3.41,3.41,0,0,1,1.36.28,3.49,3.49,0,0,1,1.1.74,3.64,3.64,0,0,1,.75,1.1,3.4,3.4,0,0,1,.27,1.36Z"></path><path class="cls-1" d="M33.18,183a5,5,0,0,0,.58-1.31,5.14,5.14,0,0,0,.21-1.48V180a5.24,5.24,0,0,0-.42-2.09A5.33,5.33,0,0,0,30.7,175a5.27,5.27,0,0,0-2.09-.42H21.72v21.77h6.89A5.27,5.27,0,0,0,30.7,196a5.4,5.4,0,0,0,1.7-1.14,5.49,5.49,0,0,0,1.15-1.7,5.22,5.22,0,0,0,.42-2.08v-1.4a5.14,5.14,0,0,0-.21-1.48,5.2,5.2,0,0,0-.58-1.32,5.68,5.68,0,0,0-.9-1.11,5.27,5.27,0,0,0-1.15-.83,5.22,5.22,0,0,0,1.15-.82A5.68,5.68,0,0,0,33.18,183Zm-1.44,5a3.4,3.4,0,0,1,.27,1.36v1.72a3.39,3.39,0,0,1-.27,1.35,3.55,3.55,0,0,1-.76,1.1,3.36,3.36,0,0,1-1.1.75,3.44,3.44,0,0,1-1.36.27H23.67v-8.67h4.85a3.28,3.28,0,0,1,1.36.28,3.49,3.49,0,0,1,1.1.74A3.55,3.55,0,0,1,31.74,188ZM32,180.5a3.39,3.39,0,0,1-.27,1.35A3.71,3.71,0,0,1,31,183a3.36,3.36,0,0,1-1.1.75,3.28,3.28,0,0,1-1.36.28H23.67v-7.5h4.85a3.44,3.44,0,0,1,1.36.27,3.36,3.36,0,0,1,1.1.75,3.71,3.71,0,0,1,.76,1.11A3.4,3.4,0,0,1,32,180Z"></path><path class="cls-1" d="M49.31,186.68a7.34,7.34,0,0,0-1.65-1.14c-.61-.31-1.24-.59-1.89-.85l-1.89-.76a8.08,8.08,0,0,1-1.65-.88,4.24,4.24,0,0,1-1.17-1.22,3.3,3.3,0,0,1-.44-1.76v-.41a3.25,3.25,0,0,1,.28-1.36,3.47,3.47,0,0,1,.75-1.1,3.66,3.66,0,0,1,1.11-.74,3.41,3.41,0,0,1,1.36-.28h1.21a3.41,3.41,0,0,1,1.36.28,3.49,3.49,0,0,1,1.1.74,3.61,3.61,0,0,1,.74,1.1,3.41,3.41,0,0,1,.28,1.36v.88l1.95-.32v-.56a5.31,5.31,0,0,0-5.34-5.34H44a5.4,5.4,0,0,0-2.08.41,5.2,5.2,0,0,0-1.71,1.15,5.38,5.38,0,0,0-1.15,1.7,5.18,5.18,0,0,0-.41,2.08v.41a5.48,5.48,0,0,0,.44,2.35A4.93,4.93,0,0,0,40.27,184a6.89,6.89,0,0,0,1.65,1.1c.61.29,1.24.56,1.89.8l1.89.73a8.1,8.1,0,0,1,1.65.89,4.29,4.29,0,0,1,1.17,1.27A3.67,3.67,0,0,1,49,190.7v.65a3.14,3.14,0,0,1-.3,1.36,3.66,3.66,0,0,1-.8,1.11,3.75,3.75,0,0,1-1.15.75,3.54,3.54,0,0,1-1.38.27H44a3.66,3.66,0,0,1-1.39-.27,3.92,3.92,0,0,1-1.16-.75,3.63,3.63,0,0,1-.79-1.11,3.14,3.14,0,0,1-.3-1.36v-1.19l-2,.32v.87a4.89,4.89,0,0,0,.45,2.08,5.69,5.69,0,0,0,1.2,1.7,5.53,5.53,0,0,0,1.74,1.14,5.41,5.41,0,0,0,2.11.42h1.56a5.32,5.32,0,0,0,2.1-.42,5.46,5.46,0,0,0,1.75-1.14,5.69,5.69,0,0,0,1.2-1.7,4.89,4.89,0,0,0,.45-2.08v-.65a5.8,5.8,0,0,0-.44-2.37A5.24,5.24,0,0,0,49.31,186.68Z"></path><polygon class="cls-1" points="56.29 196.39 68.54 196.39 68.54 194.52 58.24 194.52 58.24 186.45 66.58 186.45 66.58 184.58 58.24 184.58 58.24 176.49 68.54 176.49 68.54 174.62 56.29 174.62 56.29 196.39"></polygon><path class="cls-1" d="M80.18,187.1a5.19,5.19,0,0,0,2.08-.42,5.52,5.52,0,0,0,1.7-1.14,5.3,5.3,0,0,0,1.56-3.8V180a5.3,5.3,0,0,0-1.56-3.8,5.52,5.52,0,0,0-1.7-1.14,5.19,5.19,0,0,0-2.08-.42H73.27v21.77h2V187.1h2.69l5.9,9.29h2.27Zm-5-1.87v-8.74h4.86a3.4,3.4,0,0,1,1.36.27,3.47,3.47,0,0,1,1.1.75,3.66,3.66,0,0,1,.74,1.11,3.41,3.41,0,0,1,.28,1.36v1.76a3.41,3.41,0,0,1-.28,1.36,3.66,3.66,0,0,1-.74,1.11,3.47,3.47,0,0,1-1.1.75,3.4,3.4,0,0,1-1.36.27Z"></path><polygon class="cls-1" points="95.88 191.61 95.81 192.41 95.75 191.61 90.94 174.62 88.91 174.62 95.28 196.39 96.31 196.39 102.72 174.62 100.7 174.62 95.88 191.61"></polygon><path class="cls-1" d="M111.33,174.62h-1l-6.38,21.77h2l1.43-5.07h6.89l1.44,5.07h2Zm-3.42,14.83,2.86-10,.06-.81.06.81,2.87,10Z"></path><polygon class="cls-1" points="119.1 176.49 124.29 176.49 124.29 196.39 126.25 196.39 126.25 176.49 131.44 176.49 131.44 174.62 119.1 174.62 119.1 176.49"></polygon><path class="cls-1" d="M147.19,177.58a5.38,5.38,0,0,0-1.15-1.7,5.27,5.27,0,0,0-1.7-1.15,5.36,5.36,0,0,0-2.08-.41h-1.55a5.36,5.36,0,0,0-2.08.41,5.2,5.2,0,0,0-1.71,1.15,5.38,5.38,0,0,0-1.15,1.7,5.19,5.19,0,0,0-.42,2.08v11.69a5.19,5.19,0,0,0,.42,2.08,5.38,5.38,0,0,0,1.15,1.7,5.41,5.41,0,0,0,3.79,1.56h1.55a5.36,5.36,0,0,0,3.78-1.56,5.38,5.38,0,0,0,1.15-1.7,5.19,5.19,0,0,0,.42-2.08V179.66A5.19,5.19,0,0,0,147.19,177.58Zm-1.54,13.77a3.28,3.28,0,0,1-.28,1.36,3.66,3.66,0,0,1-.74,1.11,3.52,3.52,0,0,1-1.1.75,3.4,3.4,0,0,1-1.36.27H140.8a3.39,3.39,0,0,1-1.35-.27,3.68,3.68,0,0,1-1.11-.75,3.51,3.51,0,0,1-.75-1.11,3.28,3.28,0,0,1-.28-1.36V179.66a3.25,3.25,0,0,1,.28-1.36,3.47,3.47,0,0,1,.75-1.1,3.66,3.66,0,0,1,1.11-.74,3.4,3.4,0,0,1,1.35-.28h1.37a3.41,3.41,0,0,1,1.36.28,3.49,3.49,0,0,1,1.1.74,3.61,3.61,0,0,1,.74,1.1,3.25,3.25,0,0,1,.28,1.36Z"></path><path class="cls-1" d="M160.11,187.1a5.19,5.19,0,0,0,2.08-.42,5.33,5.33,0,0,0,2.85-2.85,5.27,5.27,0,0,0,.42-2.09V180a5.24,5.24,0,0,0-.42-2.09,5.33,5.33,0,0,0-2.85-2.85,5.19,5.19,0,0,0-2.08-.42h-6.9v21.77h1.95V187.1h2.69l5.91,9.29H166Zm-5-1.87v-8.74H160a3.4,3.4,0,0,1,1.36.27,3.36,3.36,0,0,1,1.1.75,3.66,3.66,0,0,1,.74,1.11,3.25,3.25,0,0,1,.28,1.36v1.76a3.25,3.25,0,0,1-.28,1.36,3.66,3.66,0,0,1-.74,1.11,3.36,3.36,0,0,1-1.1.75,3.4,3.4,0,0,1-1.36.27Z"></path><polygon class="cls-1" points="175.09 183.67 170.62 174.62 168.51 174.62 174.14 186.01 174.14 196.39 176.1 196.39 176.1 185.97 181.68 174.62 179.57 174.62 175.09 183.67"></polygon><path class="cls-1" d="M96.64,18.91a3.64,3.64,0,0,0-.57,0,4.62,4.62,0,0,0-4.58,4.06l-5.41,44a1.24,1.24,0,0,0,.9,1.35,1.22,1.22,0,0,0,1.53-.86l12-42.67a6,6,0,0,0,.14-.69,4.63,4.63,0,0,0-4-5.14Z"></path><path class="cls-1" d="M62.73,102,25.27,79.09,96.84,5.24l10.31-.4v5a1.25,1.25,0,0,0,2.49,0V3.55a1.25,1.25,0,0,0-1.24-1.24h0L96.2,2.44a1.41,1.41,0,0,0-1,.38L16.68,77.16a3.72,3.72,0,0,0-.55.65,3.76,3.76,0,0,0-.54,2.79A3.7,3.7,0,0,0,17.18,83l.09.06L57.78,109.8l.13.09a4.67,4.67,0,0,0,2.41.68A4.61,4.61,0,0,0,62.73,102Z"></path><path class="cls-1" d="M164.42,113.27a6.25,6.25,0,0,0-2.55-.58,4.75,4.75,0,0,0-1.52.24,4.54,4.54,0,0,0-2.79,2.76,4.62,4.62,0,0,0,.38,3.87,5.8,5.8,0,0,0,.49.73,5.61,5.61,0,0,1,.4.59c.36.63.54,1.77-.19,2.19a5.47,5.47,0,0,1-2.19.53c-.31,0-.68,0-1.09,0a61.24,61.24,0,0,1-7.07-.63c-1.3-.21-2.62-.46-3.89-.74-4.45-.94-9.55-2.34-15.59-4.27l-4.23-1.35c-1.24-.41-2.72-.9-4.26-1.43-3.33-1.15-6.11-2.15-8.76-3.17-6-2.28-12-4.8-18-7.49-6.3-2.85-12.39-5.85-18.1-8.91A168.13,168.13,0,0,1,58.27,85.21l-1.07-.78-.94-.67L56,83.54l-1.66-1.27-1.86-1.54c-.69-.61-1.23-1.1-1.72-1.59a22.32,22.32,0,0,1-2.66-3,8,8,0,0,1-1.23-2.38,1.51,1.51,0,0,1,0-.83,1.25,1.25,0,0,1,.38-.45,5.77,5.77,0,0,1,2.67-.92,19.67,19.67,0,0,1,2.8-.17c.52,0,1.05,0,1.57,0A65.1,65.1,0,0,1,63,72.52a162,162,0,0,1,15.83,4c4.36,1.32,8.66,2.77,13.14,4.42,3.36,1.24,6.72,2.55,10,3.87,2.76,1.12,4.92,2.06,6.35,2.68l2.23,1a1.24,1.24,0,1,0,1-2.27s-3.19-1.41-8.65-3.64c-3.28-1.35-6.66-2.66-10-3.92-1.9-.71-4-1.44-6.25-2.24s-4.65-1.59-7-2.32a156.46,156.46,0,0,0-16.06-4.28,69.71,69.71,0,0,0-9.09-1.31c-.91-.06-1.66-.09-2.35-.09a20.84,20.84,0,0,0-2.58.15,10.85,10.85,0,0,0-2.65.63,4.68,4.68,0,0,0-3,2.8,4.28,4.28,0,0,0-.11,2.12,9.17,9.17,0,0,0,1.37,3.26,23.87,23.87,0,0,0,3.28,4.08c.52.54,1.11,1.1,1.85,1.78l.8.69,1.13,1,1.18.95.81.65,1.46,1.11.58.44A196.62,196.62,0,0,0,73.46,99.16c5.58,3.22,11.66,6.45,18.07,9.61,6,3,12,5.74,18,8.29,3.38,1.43,6.17,2.58,8.77,3.61,1.56.62,3.11,1.21,4.29,1.66l2.22.82,2,.73c5.22,1.91,10.76,3.86,16,5.25,2.43.65,4.93,1.22,7.43,1.69.58.11,1.19.21,1.8.31a55.19,55.19,0,0,0,8.16.78c.51,0,1,0,1.5,0A13.83,13.83,0,0,0,166,131a7.83,7.83,0,0,0,3.7-2.81,8.23,8.23,0,0,0,1.32-4.49v-.33A11.45,11.45,0,0,0,164.42,113.27Z"></path></svg> 