<?xml version="1.0" encoding="UTF-8" standalone="no"?>
<svg
   xmlns:dc="http://purl.org/dc/elements/1.1/"
   xmlns:cc="http://creativecommons.org/ns#"
   xmlns:rdf="http://www.w3.org/1999/02/22-rdf-syntax-ns#"
   xmlns:svg="http://www.w3.org/2000/svg"
   xmlns="http://www.w3.org/2000/svg"
   viewBox="0 0 655.67999 281.39999"
   height="281.39999"
   width="655.67999"
   xml:space="preserve"
   id="svg2"
   version="1.1"><metadata
     id="metadata8"><rdf:RDF><cc:Work
         rdf:about=""><dc:format>image/svg+xml</dc:format><dc:type
           rdf:resource="http://purl.org/dc/dcmitype/StillImage" /></cc:Work></rdf:RDF></metadata><defs
     id="defs6" /><g
     transform="matrix(1.3333333,0,0,-1.3333333,0,281.4)"
     id="g10"><g
       transform="scale(0.1)"
       id="g12"><path
         id="path14"
         style="fill:#0f2b53;fill-opacity:1;fill-rule:nonzero;stroke:none"
         d="m 980.992,1663.74 c 14.344,-35.38 17.918,-50.24 25.598,-50.24 5.64,0 9.24,2.57 12.82,12.79 l 57.38,142.5 c 1.55,3.55 3.61,3.55 4.64,3.55 1.54,0 2.54,-2.03 3.57,-4.61 l 56.35,-134.74 c 7.19,-16.4 9.25,-19.49 13.86,-19.49 7.67,0 11.77,9.73 14.86,16.91 l 131.7,310.51 c 16.89,40.51 29.72,26.65 29.72,37.94 0,5.6 -2.58,5.6 -6.16,5.6 -11.79,0 -27.17,-2.03 -42.54,-2.03 -12.28,0 -24.07,2.03 -35.88,2.03 -3.55,0 -5.61,-3.54 -5.61,-7.66 0,-10.25 33.3,-6.65 33.3,-28.69 0,-6.15 -1.03,-11.29 -3.58,-16.93 l -93.28,-229.55 c -4.61,-11.29 -7.67,-18.96 -11.25,-18.96 -3.09,0 -6.15,4.12 -11.28,15.89 l -43.03,106.08 c -3.09,7.67 -6.68,19.46 -6.68,24.59 0,4.61 0.5,9.22 4.62,19.47 l 36.36,84.03 c 23.07,53.8 35.39,34.33 35.39,48.7 0,1.52 -2.07,3.03 -3.61,3.03 -8.71,0 -14.86,-2.03 -37.39,-2.03 -11.28,0 -22.05,2.03 -33.33,2.03 -3.06,0 -10.25,0 -10.25,-4.57 0,-11.28 30.23,-8.22 29.72,-30.24 0,-5.13 -2.55,-13.31 -4.58,-18.47 l -25.14,-59.92 c -3.07,-7.19 -5.62,-12.82 -7.16,-12.82 -1.03,0 -2.58,3.58 -6.64,13.31 l -26.68,67.65 c -2.55,6.13 -3.58,9.2 -3.58,15.35 0,16.92 21.01,15.4 21.01,23.62 0,3.06 -1,6.09 -3.06,6.09 -11.28,0 -25.14,-2.03 -49.71,-2.03 -7.18,0 -34.349,2.03 -51.763,2.03 -4.605,0 -7.672,-0.48 -7.672,-5.6 0,-17.44 35.852,1.03 49.705,-32.81 l 51.25,-123.49 c 2.55,-6.64 5.1,-12.8 5.1,-15.89 0,-3.07 -2.04,-10.74 -6.13,-20.99 l -37.94,-90.21 c -2.03,-5.61 -4.61,-9.22 -7.15,-9.22 -3.1,0 -6.68,7.7 -8.74,13.34 l -97.345,240.84 c -2.058,4.61 -3.09,9.74 -3.09,12.8 0,17.44 22.047,17.44 22.047,25.14 0,3.55 -1.031,6.09 -4.121,6.09 -12.262,0 -24.57,-2.03 -36.875,-2.03 -14.836,0 -30.234,2.03 -45.098,2.03 -5.121,0 -11.793,-2.03 -11.793,-8.18 0,-10.25 24.622,-3.58 36.907,-33.81 l 112.23,-278.73 v 0 0" /><path
         id="path16"
         style="fill:#0f2b53;fill-opacity:1;fill-rule:evenodd;stroke:none"
         d="m 1419.41,1753.39 c 11.74,0 17.42,-0.51 17.42,8.7 0,20.52 -27.67,81.48 -90.71,81.48 -64.05,0 -100.44,-54.83 -100.44,-120.42 0,-33.81 26.65,-105.02 103.53,-105.02 46.1,0 90.7,36.88 90.7,48.64 0,1.55 0,3.61 -2.05,3.61 -11.29,0 -28.2,-26.65 -72.27,-26.65 -31.27,0 -82.51,25.11 -82.51,109.66 h 136.33 v 0 z m -136.33,13.85 c 0,28.17 22.55,64.57 54.34,64.57 28.17,0 56.86,-25.65 56.86,-54.32 0,-7.7 -3.06,-10.25 -10.25,-10.25 h -100.95 v 0 0" /><path
         id="path18"
         style="fill:#0f2b53;fill-opacity:1;fill-rule:nonzero;stroke:none"
         d="m 1523.38,1718.54 c 20.5,-9.71 46.63,-17.95 46.63,-45.09 0,-26.63 -20.5,-42.03 -45.63,-42.03 -55.32,0 -49.65,67.65 -60.93,67.65 -7.69,0 -6.18,-16.4 -6.18,-25.08 0,-40.51 0,-41 11.28,-41 12.3,0 21.53,-14.86 57.4,-14.86 37.91,0 69.17,31.78 69.17,70.17 0,32.79 -13.3,48.71 -42.53,61 -53.8,21.49 -67.12,32.26 -67.12,49.18 0,20.99 15.89,32.81 35.88,32.81 46.61,0 51.24,-44.58 56.34,-44.58 7.7,0 5.64,6.15 5.64,19.96 0,3.58 0.52,21.04 -2.54,25.14 -6.17,7.67 -41.52,11.76 -50.23,11.76 -37.42,0 -69.17,-20.5 -69.17,-61.5 0,-36.36 34.32,-49.69 61.99,-63.53 v 0 0" /><path
         id="path20"
         style="fill:#0f2b53;fill-opacity:1;fill-rule:evenodd;stroke:none"
         d="m 1629.84,1677.54 c 0,-52.79 33.82,-59.41 57.4,-59.41 35.86,0 63.54,17.41 63.54,25.11 0,4.09 -2.06,4.58 -4.1,4.58 -8.7,0 -16.4,-11.76 -43.57,-11.76 -20.5,0 -34.82,9.73 -35.87,30.71 v 149.15 h 66.62 l 7,18.72 c 1.53,2.55 -4.42,2.26 -17.26,2.26 h -56.36 c 0,36.91 0.51,47.67 -6.65,47.67 -4.09,0 -8.32,2.91 -10.32,-12.95 -4.27,-34.07 -31.99,-47.39 -32.31,-51.38 2.72,2.73 -9.47,-5.46 11.88,-4.32 v -138.38 0 0" /><path
         id="path22"
         style="fill:#0f2b53;fill-opacity:1;fill-rule:nonzero;stroke:none"
         d="m 1886.01,1645.79 c 4.59,-10.76 10.76,-32.29 18.95,-32.29 7.68,0 11.28,16.91 16.92,29.74 l 127.58,301.8 c 14.35,34.31 28.7,21.51 28.7,32.78 0,4.61 -3.07,6.64 -8.71,6.64 -7.19,0 -14.86,-2.03 -39.43,-2.03 -11.28,0 -22.56,2.03 -33.84,2.03 -5.15,0 -7.7,-1.51 -7.7,-6.64 0,-11.79 32.78,-2.03 32.78,-25.62 2.07,-10.77 -4.09,-27.14 -7.16,-34.84 l -89.15,-219.83 c -2.58,-6.15 -4.1,-14.32 -9.22,-14.32 -5.67,0 -9.22,11.76 -20.5,38.91 l -89.67,211.13 c -2.06,4.61 -4.62,12.8 -4.62,19.98 0,18.44 21.51,18.95 20.99,26.12 0,3.08 -4.07,5.11 -7.15,5.11 -7.16,0 -26.64,-2.03 -40.49,-2.03 -15.37,0 -31.26,2.03 -47.12,2.03 -4.64,0 -7.19,-2.54 -7.19,-7.13 0,-11.3 26.66,-1.54 39.48,-32.29 l 126.55,-299.25 v 0 0" /><path
         id="path24"
         style="fill:#0f2b53;fill-opacity:1;fill-rule:nonzero;stroke:none"
         d="m 2474.24,1917.9 c -6.16,0 -21.5,-21.53 -21.5,-27.17 0,-5.62 15.34,-26.66 21.5,-26.66 6.69,0 21.56,20.5 21.56,26.66 0,6.18 -14.87,27.17 -21.56,27.17 v 0 0" /><path
         id="path26"
         style="fill:#0f2b53;fill-opacity:1;fill-rule:nonzero;stroke:none"
         d="m 2825.09,1920.65 c -6.12,0 -21.52,-21.52 -21.52,-27.14 0,-5.64 15.4,-26.65 21.52,-26.65 6.65,0 21.51,20.49 21.51,26.65 0,6.13 -14.86,27.14 -21.51,27.14 v 0 0" /><path
         id="path28"
         style="fill:#0f2b53;fill-opacity:1;fill-rule:evenodd;stroke:none"
         d="m 3013.62,1674.48 c 0,-27.15 -34.86,-41.49 -53.29,-41.49 -27.17,0 -42.03,11.25 -42.03,40.46 0,45.09 62.53,53.31 95.32,60.47 v -59.44 0 z m 0,71.72 C 2893.71,1726.22 2885,1693.95 2885,1666.77 c 0,-36.36 22.02,-48.64 55.35,-48.64 28.71,0 56.86,11.25 78.39,29.69 6.67,-16.89 19.96,-26.14 39.97,-26.14 7.17,0 29.71,2.06 29.71,12.83 0,3.6 -4.09,3.6 -6.64,3.6 -2.09,0 -6.67,-1.03 -8.74,-1.03 -26.65,0 -22.01,30.21 -22.01,47.65 v 106.08 c 0,43.55 -49.22,52.76 -80.97,52.76 -56.86,1.52 -85.54,-34.35 -86.11,-57.89 0,-9.22 15.4,-16.89 24.1,-16.89 9.77,0 11.28,4.07 11.28,9.68 0,5.67 -3.07,13.37 -3.07,21.04 0,28.2 19.96,30.75 44.56,30.75 31.77,0 52.8,-17.95 52.8,-44.58 v -39.48 0 0" /><path
         id="path30"
         style="fill:#0f2b53;fill-opacity:1;fill-rule:evenodd;stroke:none"
         d="m 2113.88,1633.46 c -4.36,-0.44 -37.94,0.2 -37.94,22.04 v 183.98 c 0,5.1 -3.06,8.19 -6.13,8.19 -11.8,0 -22.05,-16.38 -54.86,-25.63 -2.54,-0.49 -4.6,-2.57 -4.6,-5.64 0,-10.73 28.2,2.58 28.2,-28.17 v -120.94 c 0,-46.61 -22.57,-27.14 -22.57,-39.96 0.52,-5.1 3.59,-5.65 7.7,-5.65 5.64,0 18.96,2.06 35.33,2.06 21.02,0 36.91,-2.06 47.65,-2.06 2.22,0 4.2,0.11 5.75,0 1.67,0.11 1.67,0 3.44,0 3.59,0 12.8,2.06 47.15,2.06 28.7,0 40.98,-2.06 48.17,-2.06 5.63,0 8.19,1.06 8.19,5.65 0,16.4 -45.61,-8.2 -45.61,39.44 l 0.18,114.19 c 0,6.65 40.79,78.45 103.22,75.69 18.49,-0.79 15.45,-1.69 27.61,17.42 5.21,8.24 -18.72,8.21 -29.42,7.33 -68.9,-5.48 -84.26,-52.45 -101.41,-77.2 v 1.03 l -0.18,34.25 c 0,5.1 -3.07,8.19 -6.13,8.19 -11.82,0 -22.05,-16.38 -61.52,-25.63 -2.56,-0.49 -6.65,-2.57 -6.65,-5.64 0,-10.73 36.9,2.58 36.9,-28.17 v -132.19 c 0,-16.04 -17.05,-23.46 -22.47,-22.58 v 0 0" /><path
         id="path32"
         style="fill:#0f2b53;fill-opacity:1;fill-rule:nonzero;stroke:none"
         d="m 2784.19,1633.97 c -5.03,0.08 -38.39,-1.95 -38.39,29.23 v 84.55 c 0,38.96 -14.88,95.82 -83.54,95.82 -49.7,0 -75.32,-44.06 -74.3,-37.9 v 33.81 c 0,5.1 -3.06,8.19 -6.12,8.19 -11.8,0 -22.05,-16.38 -64.62,-25.63 -2.53,-0.49 -4.58,-2.57 -4.58,-5.64 0,-10.73 37.9,2.58 37.9,-28.17 v -127.07 c 0,-23.63 -17.4,-26.8 -25.13,-26.58 -3.39,0.68 -34.76,0.78 -34.76,20.92 v 183.98 c 0,5.1 -3.07,8.19 -6.14,8.19 -11.8,0 -22.04,-16.38 -54.83,-25.63 -2.55,-0.49 -8.93,-17.77 -5.9,-17.4 16.8,1.9 29.47,14.34 29.47,-16.41 v -120.94 c 0,-46.61 -22.56,-27.14 -22.56,-39.96 0.54,-5.1 3.6,-5.65 7.67,-5.65 5.67,0 18.95,2.06 35.39,2.06 21.01,0 36.88,-2.06 47.64,-2.06 1.35,0 3.63,-0.13 4.72,0.03 0.85,-0.08 2.44,-0.03 3.43,-0.03 6.14,0 16.4,2.06 43.57,2.06 29.72,0 39.96,-2.06 48.66,-2.06 7.68,0 11.31,1.06 11.31,7.19 0,13.83 -45.12,-1.01 -45.12,34.33 v 117.84 c -0.53,8.22 17.45,40 60.47,40 41.49,0 59.95,-38.43 59.95,-64.04 v -95.84 c 0,-33.3 -22.05,-23.05 -22.05,-33.3 0,-5.12 2.56,-6.18 9.25,-6.18 6.65,0 17.42,2.06 36.92,2.06 25.07,0 37.91,-2.06 44.54,-2.06 2.5,0 4.13,0 6.21,0.05 1.73,-0.05 3.44,-0.05 5.56,-0.05 5.65,0 18.95,2.06 35.36,2.06 21.02,0 36.91,-2.06 47.64,-2.06 6.68,0 9.74,1.55 9.74,5.65 0,13.33 -40.49,2.05 -40.49,28.17 v 183.98 c 0,5.1 -3.07,8.19 -6.12,8.19 -11.8,0 -22.04,-16.38 -54.86,-25.63 -2.55,-0.49 -4.61,-2.57 -4.61,-5.64 0,-10.73 28.24,2.58 28.24,-28.17 v -120.94 c 0,-34.68 -12.92,-32.52 -19.52,-33.32 v 0 0" /><path
         id="path34"
         style="fill:#0f2b53;fill-opacity:1;fill-rule:nonzero;stroke:none"
         d="m 2451.85,1821.89 c -2.26,3.71 -7.46,3.74 -9.16,3.76 l -1.18,-0.23 c -15.82,-5.64 -29.51,-8.5 -40.69,-8.5 -6.29,0 -11.82,0.98 -15.31,2.81 -4.29,2.16 -7.77,4.37 -11.17,6.48 -11.72,7.37 -21.84,13.74 -55.47,13.74 -49.01,0 -85.96,-36.09 -85.96,-83.96 0,-26.06 11.68,-49.96 30.72,-63.51 -7.6,-7.18 -24.6,-24.28 -24.6,-42.03 0,-22.38 7.94,-38.29 21.33,-43.52 11.45,-6.31 33.74,-9.97 68.14,-11.2 55.48,-1.6 67.34,-3.56 67.34,-20.61 0,-7.88 -3.94,-47.26 -81.58,-47.26 -19.6,0 -65.23,3.74 -65.23,38.22 0,11.8 0.87,12.88 7,20.63 1.91,2.42 2.27,5.46 0.92,8.18 -1.49,3.1 -4.78,5 -8.59,5 -0.72,0 -1.47,-0.04 -2.73,-0.33 -9.76,-3.32 -24.52,-8.34 -24.52,-32.62 0,-45.72 58.92,-57.8 90.09,-57.8 85.76,0 116.2,42.18 116.2,78.29 0,49.22 -53.22,49.22 -81.82,49.22 -3.94,0 -7.86,-0.05 -11.73,-0.11 -3.71,-0.02 -7.33,-0.02 -10.87,-0.02 -35.46,0 -48.87,6.21 -53.89,11.43 -3.37,3.51 -3.23,6.85 -3.12,9.69 0,10.2 10.92,24.7 21.11,24.7 1.82,0 3.26,-0.39 5.52,-0.98 4.79,-1.24 12.08,-3.13 29.88,-3.13 51.29,0 88.53,34.41 88.53,81.88 0,8.29 -1.23,17.41 -3.92,28.61 -0.91,2.06 -1.84,3.94 -2.61,5.54 -0.69,1.34 -1.37,2.72 -1.92,3.94 17.46,1.8 47.49,8.85 48.48,14.73 0.97,1.88 2.82,5.61 0.81,8.96 z m -128.51,-123.98 c -35.99,0 -48.76,35.41 -48.76,65.7 0,27.17 8.07,59.57 46.73,59.57 36.04,0 48.78,-36.49 48.78,-67.79 0,-17.28 -4.56,-57.48 -46.75,-57.48 v 0" /><path
         id="path36"
         style="fill:#0f2b53;fill-opacity:1;fill-rule:evenodd;stroke:none"
         d="m 4204.83,1633.48 c -3.2,-0.8 -6.27,-7.88 0.49,-11.25 1.95,-1.01 -1.01,0.07 0.53,-0.03 1.65,0.1 1.64,0.03 3.43,0.03 3.61,0 12.8,2.06 47.15,2.06 28.72,0 41,-2.06 48.19,-2.06 5.61,0 8.17,1.02 8.17,5.63 0,16.38 -45.6,-8.18 -45.6,39.46 l 0.19,114.17 c 0,6.64 40.77,78.44 103.22,75.69 18.49,-0.81 15.46,-1.66 27.61,17.45 5.2,8.19 -18.72,8.17 -29.46,7.32 -68.84,-5.51 -84.19,-52.44 -101.37,-77.24 v 1.06 l -0.19,34.22 c 0,5.13 -3.05,8.22 -6.14,8.22 -11.78,0 -22.02,-16.4 -61.48,-25.62 -2.57,-0.55 -6.67,-2.55 -6.67,-5.64 0,-10.77 36.88,2.55 36.88,-28.21 v -132.19 c 0,-16.04 -19.38,-20.96 -24.95,-23.07 v 0 0" /><path
         id="path38"
         style="fill:#0f2b53;fill-opacity:1;fill-rule:evenodd;stroke:none"
         d="m 4874.21,1803.4 c 10.25,30.75 27.66,17.92 27.66,29.72 0,4.09 -3.61,6.13 -9.74,6.13 -5.13,0 -14.34,-2.04 -26.14,-2.04 -14.33,0 -22.54,2.04 -28.66,2.04 -9.25,0 -15.4,-0.5 -15.4,-5.61 0,-11.28 32.81,-3.58 32.81,-31.27 0,-3.61 0,-8.19 -6.18,-26.66 -34.65,-110.68 -39.43,-115.78 -39.43,-115.78 l -54.83,139.37 1.01,1.04 c 1.05,-4.64 -3.57,3.06 -3.57,11.25 0,20.5 29.21,10.25 29.21,21.02 0,5.6 -3.08,6.64 -10.79,6.64 -8.16,0 -19.96,-2.04 -37.91,-2.04 -13.83,0 -25.17,1.11 -35.92,1.11 -7.17,0 -7.86,-0.67 -10.17,-5.2 -13.47,-26.07 19,-8.42 24.04,-18.98 l 67.17,-165.5 c 4.59,-10.76 10.25,-22.03 10.25,-34.32 0,-39.97 -48.29,-128.18 -126.22,-117.67 -2.72,0.37 -8.81,2.14 -11.23,-1.06 2.25,-0.61 -7.03,2.35 8.98,-21.29 5.74,-4.59 16.5,-6.91 34.89,-2.86 52.67,11.58 88.48,64.56 88.99,66.13 27.28,40.41 91.18,265.83 91.18,265.83 v 0 0" /><path
         id="path40"
         style="fill:#0f2b53;fill-opacity:1;fill-rule:nonzero;stroke:none"
         d="m 3163.29,1943.14 c 0,36.9 34.32,22.56 34.32,36.9 0,6.16 -13.83,5.15 -16.39,5.15 -15.9,0 -32.27,-2.08 -48.68,-2.08 -13.82,0 -26.63,2.08 -39.95,2.08 -2.59,0 -11.31,-1.57 -11.31,-5.15 0,-16.4 41.53,-4.1 41.53,-34.33 v -172.67 c 0,-78.93 25.64,-154.24 160.39,-154.24 149.14,0 142.95,126.55 142.95,151.66 v 158.85 c 0,47.12 30.26,35.87 30.26,50.24 0,3.06 -4.12,5.64 -6.67,5.64 -9.24,0 -18.44,-2.08 -28.2,-2.08 -19.98,0 -39.99,2.08 -59.95,2.08 -1.55,0 -5.12,-2.58 -5.12,-5.15 0,-19.47 47.67,2.06 47.67,-50.19 v -166.06 c 0,-60.44 -22.06,-123.97 -118.4,-123.97 -69.16,0 -122.45,37.37 -122.45,119.36 v 183.96 0 0" /><path
         id="path42"
         style="fill:#0f2b53;fill-opacity:1;fill-rule:evenodd;stroke:none"
         d="m 4175.34,1754.05 c 11.79,0 17.41,-0.48 17.41,8.71 0,20.53 -27.67,81.49 -90.7,81.49 -64.06,0 -100.42,-54.83 -100.42,-120.43 0,-33.81 26.63,-105.02 103.53,-105.02 46.09,0 90.66,36.88 90.66,48.67 0,1.55 0,3.56 -2.04,3.56 -11.28,0 -28.18,-26.61 -72.26,-26.61 -31.24,0 -82.48,25.08 -82.48,109.63 h 136.3 v 0 z m -136.3,13.83 c 0,28.2 22.55,64.59 54.31,64.59 28.17,0 56.85,-25.62 56.85,-54.34 0,-7.67 -3.04,-10.25 -10.21,-10.25 h -100.95 v 0 0" /><path
         id="path44"
         style="fill:#0f2b53;fill-opacity:1;fill-rule:nonzero;stroke:none"
         d="m 4401.99,1719.21 c 20.51,-9.73 46.64,-17.92 46.64,-45.09 0,-26.63 -20.5,-42.01 -45.6,-42.01 -55.35,0 -49.68,67.63 -60.97,67.63 -7.7,0 -6.13,-16.38 -6.13,-25.1 0,-40.47 0,-40.98 11.23,-40.98 12.32,0 21.54,-14.86 57.43,-14.86 37.89,0 69.16,31.75 69.16,70.18 0,32.81 -13.33,48.67 -42.52,60.98 -53.83,21.53 -67.14,32.29 -67.14,49.21 0,21 15.89,32.79 35.9,32.79 46.61,0 51.22,-44.6 56.34,-44.6 7.65,0 5.64,6.15 5.64,20.01 0,3.58 0.53,20.98 -2.58,25.1 -6.15,7.71 -41.5,11.78 -50.22,11.78 -37.41,0 -69.19,-20.48 -69.19,-61.48 0,-36.38 34.35,-49.7 62.01,-63.56 v 0 0" /><path
         id="path46"
         style="fill:#0f2b53;fill-opacity:1;fill-rule:evenodd;stroke:none"
         d="m 4605.29,1678.23 c 0,-52.76 33.82,-59.43 57.38,-59.43 35.88,0 63.54,17.41 63.54,25.09 0,4.12 -2.05,4.63 -4.1,4.63 -8.71,0 -16.4,-11.8 -43.55,-11.8 -20.51,0 -34.85,9.74 -35.85,30.75 v 149.09 h 66.6 l 6.97,18.74 c 1.56,2.56 -4.43,2.3 -17.22,2.3 h -56.35 c 0,36.88 0.49,47.64 -6.67,47.64 -4.09,0 -8.37,2.92 -10.35,-12.93 -4.28,-34.1 -31.99,-47.4 -32.3,-51.4 2.71,2.73 -9.45,-5.44 11.9,-4.35 v -138.33 0 0" /><path
         id="path48"
         style="fill:#0f2b53;fill-opacity:1;fill-rule:nonzero;stroke:none"
         d="m 3870.93,1790.98 c -6.04,15.18 -8.57,23.26 -8.57,24.79 0,15.13 28.79,8.59 28.79,18.69 0,5.56 -4.55,5.56 -11.61,5.56 -6.09,0 -12.64,-2.01 -31.32,-2.01 -33.37,0 -33.37,2.01 -42.96,2.01 -10.12,0 -10.61,-2.53 -10.61,-6.05 0,-9.09 18.17,-1.52 27.79,-24.26 l 76.31,-174.35 c 1.49,-3.56 3.56,-12.13 10.07,-12.13 7.62,0 7.62,6.07 17.2,26.78 l 77.31,163.74 c 7.1,15.17 25.29,12.13 25.29,18.7 0,7.08 -8.61,7.57 -13.62,7.57 -8.6,0 -17.69,-2.01 -26.31,-2.01 -11.09,0 -20.71,2.01 -31.32,2.01 -6.55,0 -12.14,-0.49 -12.14,-6.54 0,-12.65 31.32,1.49 31.32,-26.81 0,-22.74 -12.62,-43.96 -22.19,-64.18 l -33.9,-72.78 -49.53,121.27 v 0 0" /><path
         id="path50"
         style="fill:#0f2b53;fill-opacity:1;fill-rule:nonzero;stroke:none"
         d="m 3718.17,1622.28 c 1.73,-0.13 2.39,0.1 4.69,0.1 5.64,0 18.95,2.04 35.36,2.04 20.99,0 36.87,-2.04 47.64,-2.04 6.64,0 9.74,1.55 9.74,5.64 0,13.32 -40.5,2.03 -40.5,28.18 v 183.98 c 0,5.12 -3.08,8.16 -6.14,8.16 -11.8,0 -22.05,-16.38 -54.83,-25.6 -2.58,-0.51 -4.61,-2.57 -4.61,-5.64 0,-10.77 28.19,2.58 28.19,-28.17 v -120.97 c 0,-34.92 -13.23,-32.99 -18.95,-33.32 -1.83,0 -38.91,-2.25 -38.91,29.25 v 84.55 c 0,38.92 -14.88,95.81 -83.54,95.81 -49.7,0 -75.34,-44.07 -74.3,-37.92 v 33.85 c 0,5.12 -3.1,8.16 -6.16,8.16 -11.79,0 -22.04,-16.38 -64.57,-25.6 -2.57,-0.51 -4.57,-2.57 -4.57,-5.64 0,-10.77 37.89,2.58 37.89,-28.17 v -127.09 c 0,-33.3 -30.25,-23.08 -30.25,-33.3 0,-5.13 2.56,-6.16 9.19,-6.16 6.19,0 16.44,2.04 43.58,2.04 29.71,0 39.98,-2.04 48.68,-2.04 7.7,0 11.3,1.03 11.3,7.16 0,13.85 -45.09,-1 -45.09,34.35 v 117.85 c -0.54,8.19 17.4,39.97 60.44,39.97 41.52,0 59.96,-38.42 59.96,-64.07 v -95.8 c 0,-33.3 -22.05,-23.08 -22.05,-33.3 0,-5.13 2.6,-6.16 9.24,-6.16 6.65,0 17.44,2.04 36.9,2.04 25.1,0 37.89,-2.04 44.56,-2.04 2.19,0 5.28,-0.1 7.11,-0.1 v 0 0" /><path
         id="path52"
         style="fill:#0f2b53;fill-opacity:1;fill-rule:nonzero;stroke:none"
         d="m 3759.7,1917.1 c -6.14,0 -21.52,-21.53 -21.52,-27.15 0,-5.63 15.38,-26.65 21.52,-26.65 6.65,0 21.54,20.5 21.54,26.65 0,6.13 -14.89,27.15 -21.54,27.15 v 0 0" /><path
         id="path54"
         style="fill:#0f2b53;fill-opacity:1;fill-rule:nonzero;stroke:none"
         d="m 4512.96,1670.05 c 0,-46.61 -22.55,-27.14 -22.55,-39.94 0.48,-5.13 3.57,-5.65 7.66,-5.65 5.65,0 18.99,2.04 35.39,2.04 20.99,0 36.91,-2.04 47.65,-2.04 6.64,0 9.76,1.55 9.76,5.65 0,13.31 -40.51,2.03 -40.51,28.17 v 183.96 c 0,5.12 -3.09,8.18 -6.15,8.18 -11.81,0 -22.06,-16.37 -54.84,-25.62 -2.55,-0.52 -4.6,-2.55 -4.6,-5.62 0,-10.76 28.19,2.55 28.19,-28.2 v -120.93 0 0" /><path
         id="path56"
         style="fill:#0f2b53;fill-opacity:1;fill-rule:nonzero;stroke:none"
         d="m 4533.36,1917.1 c -6.13,0 -21.5,-21.53 -21.5,-27.15 0,-5.63 15.37,-26.65 21.5,-26.65 6.67,0 21.53,20.5 21.53,26.65 0,6.13 -14.86,27.15 -21.53,27.15 v 0 0" /><path
         id="path58"
         style="fill:#0f2b53;fill-opacity:1;fill-rule:nonzero;stroke:none"
         d="m 4882.18,1608.09 c 19.07,0 35.37,14.8 35.37,35.1 0,20.11 -16.3,34.94 -35.37,34.94 -19.27,0 -35.61,-14.83 -35.61,-34.94 0,-20.3 16.34,-35.1 35.61,-35.1 v 0 z m -28.52,35.1 c 0,16.58 12.48,29.08 28.52,29.08 15.82,0 28.33,-12.5 28.33,-29.08 0,-16.87 -12.51,-29.29 -28.33,-29.29 -16.04,0 -28.52,12.42 -28.52,29.29 v 0 z m 21.12,-2.78 h 7.02 l 10.66,-17.52 h 6.85 l -11.48,17.77 c 5.92,0.78 10.43,3.94 10.43,11.13 0,7.98 -4.69,11.51 -14.24,11.51 h -15.35 v -40.41 h 6.11 v 17.52 0 z m 0,5.2 v 12.49 h 8.31 c 4.27,0 8.81,-0.93 8.81,-5.92 0,-6.21 -4.62,-6.57 -9.84,-6.57 h -7.28 v 0 0" /><path
         id="path60"
         style="fill:#edac09;fill-opacity:1;fill-rule:nonzero;stroke:none"
         d="M 773.109,2110.53 H 643.703 l -7.805,-0.07 c -23.875,0.41 -32.554,-8.5 -39.71,-19.5 l -101.731,-150.71 -97.293,147.67 -3.246,4.84 c 0,0 -2.652,4.32 -7.313,4.49 v 0 0 h -0.027 v 0 c -4.683,-0.17 -7.336,-4.49 -7.336,-4.49 l -3.246,-4.84 -94.156,-147.67 -104.863,150.71 c -7.161,11 -15.813,19.91 -39.715,19.5 l -7.774,0.07 H 0.0507813 L 0,1987.48 h 76.2266 c 16.0742,0.16 23.4922,-0.59 34.5074,-13.82 l 4.563,-6.7 153.82,-240.94 c 0,0 5,-7.79 13.496,-7.84 9.168,-0.02 14.246,7.86 14.246,7.86 l 89.719,134.43 v 0 h 0.027 v 0 0 l 93.153,-134.25 c 0,0 5.246,-7.97 13.156,-8.17 8.496,-0.2 13.184,7.99 13.184,7.99 l 151.793,240.92 4.531,6.7 c 7.883,12.33 17.824,13.62 33.84,13.47 l 76.281,0.05 0.566,123.35 v 0" /><path
         id="path62"
         style="fill:#edac09;fill-opacity:1;fill-rule:nonzero;stroke:none"
         d="m 577.949,1765.82 -82.972,-131.57 -106.801,155.01 -82.281,-121.05 173.398,-272.05 c 5.996,-10.19 10.742,-11.76 13.16,-11.84 5.254,-0.23 8.293,2.58 13.957,12.1 l 136.184,248.42 c 12.105,21.57 32.347,21.29 32.347,21.29 h 98.168 v 122.9 H 619.824 c -27.914,0 -41.875,-23.21 -41.875,-23.21 v 0" /></g></g></svg>