<?xml version="1.0" encoding="UTF-8"?> <svg xmlns="http://www.w3.org/2000/svg" xmlns:xlink="http://www.w3.org/1999/xlink" viewBox="0 0 1125 610.92"><defs><style>.cls-1{fill:url(#New_Gradient_Swatch_3);}.cls-2{fill:url(#New_Gradient_Swatch_3-2);}.cls-3{fill:url(#New_Gradient_Swatch_3-3);}.cls-4{fill:url(#New_Gradient_Swatch_3-4);}.cls-5{fill:url(#New_Gradient_Swatch_3-5);}.cls-6{fill:url(#New_Gradient_Swatch_3-6);}.cls-7{fill:url(#New_Gradient_Swatch_3-7);}.cls-8{fill:url(#New_Gradient_Swatch_3-8);}.cls-9{fill:url(#New_Gradient_Swatch_3-9);}.cls-10{fill:url(#New_Gradient_Swatch_3-10);}.cls-11{fill:url(#New_Gradient_Swatch_3-11);}.cls-12{fill:url(#New_Gradient_Swatch_3-12);}.cls-13{fill:url(#New_Gradient_Swatch_3-13);}.cls-14{fill:url(#New_Gradient_Swatch_3-14);}.cls-15{fill:url(#New_Gradient_Swatch_3-15);}.cls-16{fill:url(#New_Gradient_Swatch_3-16);}.cls-17{fill:url(#New_Gradient_Swatch_3-17);}.cls-18{fill:url(#New_Gradient_Swatch_3-18);}.cls-19{fill:url(#New_Gradient_Swatch_3-19);}.cls-20{fill:url(#New_Gradient_Swatch_3-20);}.cls-21{fill:url(#New_Gradient_Swatch_3-21);}.cls-22{fill:url(#New_Gradient_Swatch_3-22);}.cls-23{fill:url(#New_Gradient_Swatch_3-23);}</style><linearGradient id="New_Gradient_Swatch_3" x1="638.97" y1="713.65" x2="276.29" y2="27.14" gradientUnits="userSpaceOnUse"><stop offset="0" stop-color="#a6cd3a"></stop><stop offset="0.01" stop-color="#a3cc3b"></stop><stop offset="0.08" stop-color="#8bc640"></stop><stop offset="0.14" stop-color="#7cc143"></stop><stop offset="0.19" stop-color="#77c044"></stop><stop offset="0.26" stop-color="#62b344"></stop><stop offset="0.37" stop-color="#439f45"></stop><stop offset="0.46" stop-color="#309345"></stop><stop offset="0.53" stop-color="#298f45"></stop><stop offset="0.59" stop-color="#348851"></stop><stop offset="0.71" stop-color="#527570"></stop><stop offset="0.86" stop-color="#8256a2"></stop><stop offset="0.86" stop-color="#8356a3"></stop><stop offset="0.94" stop-color="#5e3f73"></stop><stop offset="1" stop-color="#3f2d4c"></stop></linearGradient><linearGradient id="New_Gradient_Swatch_3-2" x1="530.19" y1="771.12" x2="167.5" y2="84.61" xlink:href="#New_Gradient_Swatch_3"></linearGradient><linearGradient id="New_Gradient_Swatch_3-3" x1="587.02" y1="741.1" x2="224.33" y2="54.59" xlink:href="#New_Gradient_Swatch_3"></linearGradient><linearGradient id="New_Gradient_Swatch_3-4" x1="703.46" y1="679.58" x2="340.78" y2="-6.93" xlink:href="#New_Gradient_Swatch_3"></linearGradient><linearGradient id="New_Gradient_Swatch_3-5" x1="753.32" y1="653.24" x2="390.63" y2="-33.27" xlink:href="#New_Gradient_Swatch_3"></linearGradient><linearGradient id="New_Gradient_Swatch_3-6" x1="812.18" y1="622.14" x2="449.49" y2="-64.37" xlink:href="#New_Gradient_Swatch_3"></linearGradient><linearGradient id="New_Gradient_Swatch_3-7" x1="865.88" y1="593.77" x2="503.2" y2="-92.74" xlink:href="#New_Gradient_Swatch_3"></linearGradient><linearGradient id="New_Gradient_Swatch_3-8" x1="919.59" y1="565.4" x2="556.9" y2="-121.11" xlink:href="#New_Gradient_Swatch_3"></linearGradient><linearGradient id="New_Gradient_Swatch_3-9" x1="989.22" y1="528.61" x2="626.53" y2="-157.9" xlink:href="#New_Gradient_Swatch_3"></linearGradient><linearGradient id="New_Gradient_Swatch_3-10" x1="1033.19" y1="505.38" x2="670.5" y2="-181.13" xlink:href="#New_Gradient_Swatch_3"></linearGradient><linearGradient id="New_Gradient_Swatch_3-11" x1="1096.63" y1="471.87" x2="733.95" y2="-214.64" xlink:href="#New_Gradient_Swatch_3"></linearGradient><linearGradient id="New_Gradient_Swatch_3-12" x1="1153.01" y1="442.08" x2="790.32" y2="-244.43" xlink:href="#New_Gradient_Swatch_3"></linearGradient><linearGradient id="New_Gradient_Swatch_3-13" x1="655.1" y1="705.13" x2="292.42" y2="18.62" xlink:href="#New_Gradient_Swatch_3"></linearGradient><linearGradient id="New_Gradient_Swatch_3-14" x1="700.42" y1="681.19" x2="337.73" y2="-5.32" xlink:href="#New_Gradient_Swatch_3"></linearGradient><linearGradient id="New_Gradient_Swatch_3-15" x1="749.8" y1="655.1" x2="387.11" y2="-31.41" xlink:href="#New_Gradient_Swatch_3"></linearGradient><linearGradient id="New_Gradient_Swatch_3-16" x1="799.25" y1="628.98" x2="436.56" y2="-57.54" xlink:href="#New_Gradient_Swatch_3"></linearGradient><linearGradient id="New_Gradient_Swatch_3-17" x1="843.42" y1="605.64" x2="480.73" y2="-80.87" xlink:href="#New_Gradient_Swatch_3"></linearGradient><linearGradient id="New_Gradient_Swatch_3-18" x1="900.74" y1="575.36" x2="538.05" y2="-111.15" xlink:href="#New_Gradient_Swatch_3"></linearGradient><linearGradient id="New_Gradient_Swatch_3-19" x1="924.65" y1="562.73" x2="561.96" y2="-123.79" xlink:href="#New_Gradient_Swatch_3"></linearGradient><linearGradient id="New_Gradient_Swatch_3-20" x1="980.79" y1="533.07" x2="618.1" y2="-153.44" xlink:href="#New_Gradient_Swatch_3"></linearGradient><linearGradient id="New_Gradient_Swatch_3-21" x1="1018.55" y1="513.12" x2="655.87" y2="-173.4" xlink:href="#New_Gradient_Swatch_3"></linearGradient><linearGradient id="New_Gradient_Swatch_3-22" x1="1065.12" y1="488.52" x2="702.43" y2="-198" xlink:href="#New_Gradient_Swatch_3"></linearGradient><linearGradient id="New_Gradient_Swatch_3-23" x1="1119.6" y1="459.74" x2="756.91" y2="-226.78" xlink:href="#New_Gradient_Swatch_3"></linearGradient></defs><title>GBO-Logo-PGGradient</title><g id="Layer_2" data-name="Layer 2"><g id="purpGreenGrad"><path class="cls-1" d="M338.66,308.82a3.38,3.38,0,0,1-.94-.13,3.51,3.51,0,0,1-2.54-3.82l25.69-209a19.64,19.64,0,0,1,21.81-17,19.58,19.58,0,0,1,17,21.81,20.82,20.82,0,0,1-.58,2.89L342.06,306.26A3.54,3.54,0,0,1,338.66,308.82Zm1.23-3.37Z"></path><path class="cls-2" d="M210.42,509.51a19.39,19.39,0,0,1-10.16-2.86l-.58-.37L6.84,378.74a15.25,15.25,0,0,1-4.3-21.14,15,15,0,0,1,2.23-2.66L378,1.86A4.36,4.36,0,0,1,380.89.64L438.78,0a3.34,3.34,0,0,1,3.55,3.47V33.26a3.52,3.52,0,1,1-7,0V7.19L382.89,9.24,40.2,362.87,220.64,473.36a19.51,19.51,0,0,1-10.22,36.15Z"></path><path class="cls-3" d="M684.74,610.92c-13.65,0-27.27-2-38.53-3.71-2.81-.42-5.64-.9-8.48-1.47-11.81-2.2-23.63-4.88-35.1-8C578,591.22,551.76,582,527,572.91l-19.88-7.37c-6.76-2.56-13.56-5.17-20.39-7.88-12.38-4.88-25.59-10.32-41.59-17.12-28.29-12.06-57-25.29-85.41-39.32-30.43-15-59.26-30.32-85.67-45.54C251,442.18,220.8,424,192.36,403l-19-14.8-9.12-7.87c-3.57-3.25-6.33-5.9-8.74-8.4a112.17,112.17,0,0,1-15.29-19c-3.39-5.47-5.36-10.13-6.19-14.66a18.1,18.1,0,0,1,.44-8.94c2.29-6.95,8.89-10.39,12.63-11.82a49.8,49.8,0,0,1,12-2.84,124.32,124.32,0,0,1,22.94-.29,333.55,333.55,0,0,1,42.88,6.2c30.29,6.23,57.91,14.54,76,20.25,11.08,3.51,22.22,7.22,33.12,11s20.62,7.25,29.62,10.59c16.07,6,32.11,12.21,47.65,18.58,25.93,10.62,40.92,17.23,41.06,17.3a3.43,3.43,0,0,1,1.86,1.95,3.51,3.51,0,0,1-4.7,4.48L439,400.19c-6.8-2.95-17.07-7.42-30.18-12.73-15.45-6.3-31.42-12.5-47.47-18.42-21.3-7.88-41.75-14.77-62.53-21.05-18.05-5.45-45.51-13.37-75.48-19.17-12.16-2.29-26.64-4.74-41.76-5.49a117.38,117.38,0,0,0-21.19.71c-4.38.63-9.91,1.76-13.78,4.82a7.75,7.75,0,0,0-2.55,3.14,8.85,8.85,0,0,0,.11,5.43c1.24,4.64,4,8.89,6.2,12.07a108,108,0,0,0,12.88,14.81c2.38,2.35,5,4.73,8.4,7.73L192,388.1l7.33,5.3c23.68,16.64,50.41,32.92,81.71,49.76,27.15,14.54,56.11,28.8,86.09,42.39,28.62,12.81,57.5,24.79,85.83,35.6,12.62,4.85,25.86,9.64,41.68,15.09,6.85,2.37,13.64,4.62,20.33,6.82l20,6.4c28.8,9.19,53.1,15.86,74.29,20.37,6.12,1.31,12.39,2.5,18.64,3.52.23,0,26.24,3.9,39.31,2.82,3.77-.32,8.07-.91,11.38-2.83,4.89-2.85,4-9.66,1.81-13.59a28.66,28.66,0,0,0-2.08-3.08,37.58,37.58,0,0,1-2.21-3.23A19.79,19.79,0,0,1,674.61,537a19.17,19.17,0,0,1,11.74-11.63c5.26-1.78,11.52-1.24,17.62,1.53,17.64,8,29.64,26.5,29.85,46,0,.5,0,1,0,1.49-.16,7.76-2.17,14.69-5.83,20a34.89,34.89,0,0,1-16.5,12.48c-5.57,2.15-11.89,3.36-19.88,3.8C689.33,610.86,687,610.92,684.74,610.92Z"></path><path class="cls-4" d="M545.06,305.31a22,22,0,0,1,1.77,8.79v6l-13.67,2.12V314.1a9,9,0,0,0-.71-3.58,9.41,9.41,0,0,0-2-2.93,9.52,9.52,0,0,0-2.93-2,9,9,0,0,0-3.57-.71h-4.92a9,9,0,0,0-3.57.71,9.53,9.53,0,0,0-3,2,8.94,8.94,0,0,0-2.71,6.49v42a9,9,0,0,0,.71,3.57,9.53,9.53,0,0,0,5,5,9,9,0,0,0,3.57.71H524a9,9,0,0,0,3.57-.71,9.08,9.08,0,0,0,2.91-2,9.65,9.65,0,0,0,2-3,9,9,0,0,0,.7-3.56v-13h-12.5V329.79h26.17v47.8h-7.34l-2.77-4.24a22.77,22.77,0,0,1-4.18,2.94,20.08,20.08,0,0,1-9.72,2.39h-4.1a22.29,22.29,0,0,1-8.81-1.77,22.55,22.55,0,0,1-12-12,22.19,22.19,0,0,1-1.77-8.79v-42a22.19,22.19,0,0,1,1.77-8.79,22.62,22.62,0,0,1,4.83-7.15,22.87,22.87,0,0,1,7.18-4.83,22.47,22.47,0,0,1,8.81-1.77h5.57a22.28,22.28,0,0,1,8.8,1.77,22.92,22.92,0,0,1,7.14,4.83A22.51,22.51,0,0,1,545.06,305.31Z"></path><path class="cls-5" d="M598.14,343.48a22.53,22.53,0,0,0,15.17-13.09,22.22,22.22,0,0,0,1.77-8.81v-6.34a22.17,22.17,0,0,0-1.77-8.8,22.6,22.6,0,0,0-4.82-7.19,23,23,0,0,0-7.15-4.83,22.28,22.28,0,0,0-8.8-1.77H564.39v84.94h13.66V344.17h4.54l21.24,33.42h16Zm-5.92-12.65H578.05V306h14.17a9,9,0,0,1,3.57.71,9.08,9.08,0,0,1,2.91,2,9.62,9.62,0,0,1,2,3,8.71,8.71,0,0,1,.71,3.56v6.34a8.79,8.79,0,0,1-.71,3.57,9.79,9.79,0,0,1-2,3,9.23,9.23,0,0,1-2.92,2A9,9,0,0,1,592.22,330.83Z"></path><polygon class="cls-6" points="635.2 377.59 685.89 377.59 685.89 364.25 648.86 364.25 648.86 341.82 678.85 341.82 678.85 328.48 648.86 328.48 648.86 306 685.89 306 685.89 292.65 635.2 292.65 635.2 377.59"></polygon><polygon class="cls-7" points="703.89 377.59 754.58 377.59 754.58 364.25 717.56 364.25 717.56 341.82 747.54 341.82 747.54 328.48 717.56 328.48 717.56 306 754.58 306 754.58 292.65 703.89 292.65 703.89 377.59"></polygon><polygon class="cls-8" points="809.61 341.82 781.47 292.65 772.58 292.65 772.58 377.59 786.25 377.59 786.25 328.56 814.33 377.59 823.28 377.59 823.28 292.65 809.61 292.65 809.61 341.82"></polygon><path class="cls-9" d="M913.49,327.81h0a22.29,22.29,0,0,0,2.47-5.55,22.79,22.79,0,0,0,.87-6.25v-.77a22.35,22.35,0,0,0-1.77-8.8,22.48,22.48,0,0,0-12-12,22.36,22.36,0,0,0-8.81-1.77h-28.1v84.94h28.1a22.58,22.58,0,0,0,16-6.59,22.57,22.57,0,0,0,4.83-7.15,22.13,22.13,0,0,0,1.78-8.79v-5a22.23,22.23,0,0,0-3.34-11.81,23.53,23.53,0,0,0-3.75-4.65l-.64-.58.64-.58A23.8,23.8,0,0,0,913.49,327.81Zm-10.34,27.25a9,9,0,0,1-.7,3.57,9.1,9.1,0,0,1-2,2.92,9.61,9.61,0,0,1-3,2,8.87,8.87,0,0,1-3.56.71H879.8V339.69h14.11a9,9,0,0,1,3.57.71,9.94,9.94,0,0,1,3,2,9.32,9.32,0,0,1,2,2.91,8.84,8.84,0,0,1,.71,3.58Zm0-38a8.87,8.87,0,0,1-.7,3.56,9.47,9.47,0,0,1-5,5,8.87,8.87,0,0,1-3.56.71H879.8V306h14.11a9,9,0,0,1,3.57.71,9.7,9.7,0,0,1,3,2,9.43,9.43,0,0,1,2,3,8.82,8.82,0,0,1,.71,3.57Z"></path><path class="cls-10" d="M960,292.65h-8.67l-24.87,84.94h14.25l5.13-18.24h19.78l5.19,18.24H985ZM949.63,346l6.11-21.48L961.89,346Z"></path><polygon class="cls-11" points="1036.06 341.82 1007.93 292.65 999.04 292.65 999.04 377.59 1012.71 377.59 1012.71 328.56 1040.79 377.59 1049.74 377.59 1049.74 292.65 1036.06 292.65 1036.06 341.82"></polygon><polygon class="cls-12" points="1125 292.65 1107.89 292.65 1081.67 327.47 1081.67 292.65 1068.01 292.65 1068.01 377.59 1081.67 377.59 1081.67 342.78 1107.89 377.59 1125 377.59 1092.36 335.12 1125 292.65"></polygon><path class="cls-13" d="M537.73,416.52a19,19,0,0,0-10.09-10.1,18.46,18.46,0,0,0-7.38-1.48h-5.5a18.59,18.59,0,0,0-7.4,1.48,18.9,18.9,0,0,0-6.06,4.07,19.15,19.15,0,0,0-4.07,6,18.64,18.64,0,0,0-1.48,7.38v41.46a18.6,18.6,0,0,0,1.48,7.38,19.15,19.15,0,0,0,4.07,6,18.9,18.9,0,0,0,6.06,4.07,18.59,18.59,0,0,0,7.4,1.48h5.5a18.46,18.46,0,0,0,7.38-1.48,19,19,0,0,0,10.09-10.1,18.43,18.43,0,0,0,1.48-7.38V423.9A18.46,18.46,0,0,0,537.73,416.52Zm-5.46,48.84a12,12,0,0,1-1,4.82,12.81,12.81,0,0,1-2.64,3.93,12.14,12.14,0,0,1-3.91,2.67,11.9,11.9,0,0,1-4.82,1h-4.84a11.9,11.9,0,0,1-4.82-1,12.67,12.67,0,0,1-6.6-6.6,11.86,11.86,0,0,1-1-4.82V423.9a11.9,11.9,0,0,1,1-4.82,12.14,12.14,0,0,1,2.67-3.91,12.93,12.93,0,0,1,3.93-2.64,12.06,12.06,0,0,1,4.82-1h4.84a12.06,12.06,0,0,1,4.82,1,12.39,12.39,0,0,1,6.55,6.55,12.06,12.06,0,0,1,1,4.82Z"></path><path class="cls-14" d="M598.14,435.69a18.25,18.25,0,0,0,2.07-4.66,18.55,18.55,0,0,0,.73-5.25V425a18.68,18.68,0,0,0-1.48-7.41,18.87,18.87,0,0,0-10.13-10.12,18.59,18.59,0,0,0-7.4-1.48H557.48v77.22h24.45a18.59,18.59,0,0,0,7.4-1.48,18.87,18.87,0,0,0,6.06-4.06,19.21,19.21,0,0,0,4.07-6,18.46,18.46,0,0,0,1.48-7.38v-5a18.78,18.78,0,0,0-2.8-9.93,19.9,19.9,0,0,0-3.18-3.94,18.05,18.05,0,0,0-4.09-2.93,17.79,17.79,0,0,0,4.09-2.94A19.94,19.94,0,0,0,598.14,435.69ZM593,453.38a11.93,11.93,0,0,1,1,4.82v6.09a11.93,11.93,0,0,1-1,4.82,12.12,12.12,0,0,1-2.66,3.9,12.75,12.75,0,0,1-3.93,2.64,11.93,11.93,0,0,1-4.82,1H564.43V445.87h17.18a11.93,11.93,0,0,1,4.82,1,12.58,12.58,0,0,1,3.93,2.64A12.12,12.12,0,0,1,593,453.38Zm1-26.52a11.93,11.93,0,0,1-1,4.82,12.54,12.54,0,0,1-6.59,6.59,11.93,11.93,0,0,1-4.82,1H564.43v-26.6h17.18a11.93,11.93,0,0,1,4.82,1,12.51,12.51,0,0,1,6.59,6.6,11.9,11.9,0,0,1,1,4.82Z"></path><path class="cls-15" d="M655.36,448.8a25.28,25.28,0,0,0-5.84-4q-3.25-1.65-6.71-3l-6.7-2.69a29.14,29.14,0,0,1-5.84-3.13,14.59,14.59,0,0,1-4.15-4.33,11.71,11.71,0,0,1-1.56-6.25V423.9a11.9,11.9,0,0,1,1-4.82,12.27,12.27,0,0,1,2.66-3.91,12.93,12.93,0,0,1,3.93-2.64,12.1,12.1,0,0,1,4.82-1h4.31a12.06,12.06,0,0,1,4.82,1,12.39,12.39,0,0,1,6.55,6.55,12.06,12.06,0,0,1,1,4.82V427l6.94-1.13v-2a18.46,18.46,0,0,0-1.48-7.38,19,19,0,0,0-10.1-10.1,18.38,18.38,0,0,0-7.37-1.48h-5a18.59,18.59,0,0,0-7.4,1.48,19,19,0,0,0-10.13,10.1,18.46,18.46,0,0,0-1.48,7.38v1.45a20,20,0,0,0,1.56,8.35,17.53,17.53,0,0,0,4.15,5.73,24,24,0,0,0,5.84,3.91q3.26,1.56,6.71,2.85c2.29.86,4.53,1.73,6.7,2.59a27.18,27.18,0,0,1,5.85,3.15,14.86,14.86,0,0,1,4.14,4.49,12.86,12.86,0,0,1,1.56,6.63v2.31a11.14,11.14,0,0,1-1,4.82,13.09,13.09,0,0,1-6.92,6.6,12.46,12.46,0,0,1-4.9,1h-4.84a12.67,12.67,0,0,1-4.93-1,13.1,13.1,0,0,1-7-6.6,11.14,11.14,0,0,1-1-4.82v-4.2l-7,1.13v3.07a17.35,17.35,0,0,0,1.59,7.38,19.88,19.88,0,0,0,10.45,10.1,19,19,0,0,0,7.46,1.48h5.55a19.06,19.06,0,0,0,7.46-1.48,19.82,19.82,0,0,0,10.44-10.1,17.35,17.35,0,0,0,1.59-7.38v-2.31a20.32,20.32,0,0,0-1.56-8.4A17.89,17.89,0,0,0,655.36,448.8Z"></path><polygon class="cls-16" points="680.13 483.24 723.59 483.24 723.59 476.62 687.08 476.62 687.08 447.97 716.64 447.97 716.64 441.35 687.08 441.35 687.08 412.64 723.59 412.64 723.59 406.02 680.13 406.02 680.13 483.24"></polygon><path class="cls-17" d="M764.9,450.28a18.38,18.38,0,0,0,7.37-1.48,18.86,18.86,0,0,0,10.1-10.12,18.64,18.64,0,0,0,1.48-7.41V425a18.68,18.68,0,0,0-1.48-7.41,18.86,18.86,0,0,0-10.1-10.12A18.38,18.38,0,0,0,764.9,406H740.39v77.22h7v-33h9.53l21,33h8Zm-17.56-6.62v-31h17.23a11.9,11.9,0,0,1,4.82,1,12.43,12.43,0,0,1,3.91,2.66,13.1,13.1,0,0,1,2.64,3.94,12.06,12.06,0,0,1,1,4.82v6.24a12,12,0,0,1-1,4.82A13.1,13.1,0,0,1,773.3,440a12.43,12.43,0,0,1-3.91,2.66,11.9,11.9,0,0,1-4.82,1Z"></path><polygon class="cls-18" points="820.58 466.28 820.36 469.13 820.15 466.28 803.07 406.02 795.86 406.02 818.48 483.24 822.14 483.24 844.87 406.02 837.7 406.02 820.58 466.28"></polygon><path class="cls-19" d="M875.4,406h-3.66l-22.62,77.22h7.21l5.07-18h24.45l5.11,18h7.16Zm-12.12,52.61L873.4,423l.22-2.85.21,2.85L884,458.63Z"></path><polygon class="cls-20" points="902.96 412.64 921.38 412.64 921.38 483.24 928.33 483.24 928.33 412.64 946.75 412.64 946.75 406.02 902.96 406.02 902.96 412.64"></polygon><path class="cls-21" d="M1002.62,416.52a19,19,0,0,0-10.1-10.1,18.38,18.38,0,0,0-7.37-1.48h-5.5a18.63,18.63,0,0,0-7.4,1.48,18.9,18.9,0,0,0-6.06,4.07,19.15,19.15,0,0,0-4.07,6,18.64,18.64,0,0,0-1.48,7.38v41.46a18.6,18.6,0,0,0,1.48,7.38,19.15,19.15,0,0,0,4.07,6,18.9,18.9,0,0,0,6.06,4.07,18.63,18.63,0,0,0,7.4,1.48h5.5a18.38,18.38,0,0,0,7.37-1.48,19,19,0,0,0,10.1-10.1,18.43,18.43,0,0,0,1.48-7.38V423.9A18.46,18.46,0,0,0,1002.62,416.52Zm-5.46,48.84a12,12,0,0,1-1,4.82,12.81,12.81,0,0,1-2.64,3.93,12.14,12.14,0,0,1-3.91,2.67,11.9,11.9,0,0,1-4.82,1H980a11.9,11.9,0,0,1-4.82-1,12.67,12.67,0,0,1-6.6-6.6,11.86,11.86,0,0,1-1-4.82V423.9a11.9,11.9,0,0,1,1-4.82,12.3,12.3,0,0,1,2.67-3.91,12.93,12.93,0,0,1,3.93-2.64,12.06,12.06,0,0,1,4.82-1h4.84a12.06,12.06,0,0,1,4.82,1,12.39,12.39,0,0,1,6.55,6.55,12.06,12.06,0,0,1,1,4.82Z"></path><path class="cls-22" d="M1048.48,450.28a18.45,18.45,0,0,0,7.37-1.48,19,19,0,0,0,10.1-10.12,18.64,18.64,0,0,0,1.48-7.41V425a18.68,18.68,0,0,0-1.48-7.41,19,19,0,0,0-10.1-10.12,18.45,18.45,0,0,0-7.37-1.48H1024v77.22h7v-33h9.53l21,33h8Zm-17.56-6.62v-31h17.23a11.9,11.9,0,0,1,4.82,1,12.43,12.43,0,0,1,3.91,2.66,12.89,12.89,0,0,1,2.63,3.94,11.9,11.9,0,0,1,1,4.82v6.24a11.86,11.86,0,0,1-1,4.82,12.89,12.89,0,0,1-2.63,3.94,12.43,12.43,0,0,1-3.91,2.66,11.9,11.9,0,0,1-4.82,1Z"></path><polygon class="cls-23" points="1101.63 438.11 1085.74 406.02 1078.25 406.02 1098.23 446.41 1098.23 483.24 1105.18 483.24 1105.18 446.3 1125 406.02 1117.51 406.02 1101.63 438.11"></polygon></g></g></svg> 